<svg xmlns="http://www.w3.org/2000/svg" width="20.717" height="18.098" viewBox="0 0 20.717 18.098"><g transform="translate(0.5 0.501)"><circle cx="3.7" cy="3.7" r="3.7" transform="translate(2.439 12.55) rotate(-76.72)" fill="none" stroke="#777" stroke-linecap="round" stroke-linejoin="round" stroke-width="1"/><path d="M21.742,15.43H6.235a2.122,2.122,0,0,0-2.1,2.122v10.34a2.122,2.122,0,0,0,2.122,2.122h15.49a2.122,2.122,0,0,0,2.1-2.122V17.538a2.122,2.122,0,0,0-2.1-2.108Zm-5.391,7.276a5.331,5.331,0,1,1-1.1-3.247,5.331,5.331,0,0,1,1.1,3.247Z" transform="translate(-4.13 -12.917)" fill="none" stroke="#777" stroke-linecap="round" stroke-linejoin="round" stroke-width="1"/><path d="M18.074,23.027a5.338,5.338,0,1,0,1.1,3.237A5.338,5.338,0,0,0,18.074,23.027Zm-4.245,6.944a3.716,3.716,0,1,1,.011,0Z" transform="translate(-6.953 -16.475)" fill="none" stroke="#777" stroke-linecap="round" stroke-linejoin="round" stroke-width="1"/><circle cx="3.7" cy="3.7" r="3.7" transform="translate(2.439 12.55) rotate(-76.72)" fill="none" stroke="#777" stroke-linecap="round" stroke-linejoin="round" stroke-width="1"/><circle cx="3.7" cy="3.7" r="3.7" transform="translate(2.439 12.55) rotate(-76.72)" fill="none" stroke="#777" stroke-linecap="round" stroke-linejoin="round" stroke-width="1"/><path d="M44.166,26.85v6.491h-8.6a5.338,5.338,0,0,0,0-6.491Z" transform="translate(-24.449 -20.298)" fill="none" stroke="#777" stroke-linecap="round" stroke-linejoin="round" stroke-width="1"/><circle cx="1.061" cy="1.061" r="1.061" transform="translate(15.087 3.404)" fill="none" stroke="#777" stroke-linecap="round" stroke-linejoin="round" stroke-width="1"/><path d="M38.114,10.839H29.49l.29-1.259A1.716,1.716,0,0,1,31.5,8.328h4.6a1.719,1.719,0,0,1,1.712,1.238Z" transform="translate(-20.519 -8.327)" fill="none" stroke="#777" stroke-linecap="round" stroke-linejoin="round" stroke-width="1"/></g></svg>