<svg xmlns="http://www.w3.org/2000/svg" width="15.486" height="15.5" viewBox="0 0 15.486 15.5"><path d="M26.2,30.4a4.2,4.2,0,1,1,4.2-4.2,4.2,4.2,0,0,1-4.2,4.2Zm0-7.753A3.553,3.553,0,1,0,29.753,26.2,3.553,3.553,0,0,0,26.2,22.646Z" transform="translate(-14.913 -14.899)" fill="#777"/><path d="M32.292,32.522A1.292,1.292,0,0,1,31,31.23h.646a.646.646,0,1,0,.646-.646,1.292,1.292,0,1,1,1.292-1.292h-.646a.646.646,0,1,0-.646.646,1.292,1.292,0,1,1,0,2.584Z" transform="translate(-21.006 -18.96)" fill="#777"/><rect width="0.646" height="0.969" transform="translate(10.963 13.239)" fill="#777"/><rect width="0.646" height="0.969" transform="translate(10.963 8.394)" fill="#777"/><rect width="0.646" height="0.646" transform="translate(13.225 10.978)" fill="#777"/><rect width="0.646" height="0.646" transform="translate(8.702 10.978)" fill="#777"/><path d="M4.24,23.4a4.2,4.2,0,1,1,1.634-8.076l-.252.594A3.553,3.553,0,1,0,7.2,21.153l.539.359A4.2,4.2,0,0,1,4.24,23.4Z" transform="translate(-0.06 -10.16)" fill="#777"/><path d="M10.292,25.522A1.292,1.292,0,0,1,9,24.23h.646a.646.646,0,1,0,.646-.646,1.292,1.292,0,1,1,1.292-1.292h-.646a.646.646,0,1,0-.646.646,1.292,1.292,0,0,1,0,2.584Z" transform="translate(-6.112 -14.222)" fill="#777"/><rect width="0.646" height="0.969" transform="translate(3.857 10.978)" fill="#777"/><rect width="0.646" height="0.969" transform="translate(3.857 6.132)" fill="#777"/><rect width="0.646" height="0.646" transform="translate(6.118 8.717)" fill="#777"/><rect width="0.646" height="0.646" transform="translate(1.596 8.717)" fill="#777"/><path d="M19.984,8.409a4.2,4.2,0,1,1,2.529-.688l-.355-.539a3.553,3.553,0,1,0-2.142.581Z" transform="translate(-10.853 -0.016)" fill="#777"/><path d="M26.292,10.522A1.292,1.292,0,0,1,25,9.23h.646a.646.646,0,1,0,.646-.646,1.292,1.292,0,1,1,1.292-1.292h-.646a.646.646,0,1,0-.646.646,1.292,1.292,0,1,1,0,2.584Z" transform="translate(-16.944 -4.067)" fill="#777"/><rect width="0.646" height="0.969" transform="translate(9.025 6.132)" fill="#777"/><rect width="0.646" height="0.969" transform="translate(9.025 1.287)" fill="#777"/><rect width="0.646" height="0.646" transform="translate(11.286 3.871)" fill="#777"/><rect width="0.646" height="0.646" transform="translate(6.764 3.871)" fill="#777"/></svg>