<svg xmlns="http://www.w3.org/2000/svg" width="14.86" height="14.551" viewBox="0 0 14.86 14.551"><path d="M2.786,35.953H.31a.31.31,0,0,1-.31-.31V31.31A.31.31,0,0,1,.31,31H2.786a.31.31,0,0,1,.31.31v4.334A.31.31,0,0,1,2.786,35.953ZM.619,35.334H2.477V31.619H.619Z" transform="translate(0 -21.403)" fill="#777"/><rect width="0.619" height="0.619" transform="translate(1.238 12.693)" fill="#777"/><path d="M12.315,29.714h-.929a.619.619,0,0,1-.619-.619v-.929h.619v.929h.929V26.881l-1.474-.248L8.779,28.107l-.359-.5,2.167-1.548A.31.31,0,0,1,10.816,26l1.858.31a.31.31,0,0,1,.26.306v2.477A.619.619,0,0,1,12.315,29.714Z" transform="translate(-5.813 -17.95)" fill="#777"/><path d="M14.573,42.167H9v-.619h5.573a.31.31,0,0,0,.31-.31v-.31a.31.31,0,0,0-.31-.31H11.786V40h2.786a.929.929,0,0,1,.929.929v.31A.929.929,0,0,1,14.573,42.167Z" transform="translate(-6.214 -27.616)" fill="#777"/><path d="M20.786,37.167H18v-.619h2.786a.31.31,0,0,0,.31-.31v-.31a.31.31,0,0,0-.31-.31H19.238V35h1.548a.929.929,0,0,1,.929.929v.31A.929.929,0,0,1,20.786,37.167Z" transform="translate(-12.427 -24.164)" fill="#777"/><path d="M23.548,32.167H22v-.619h1.548a.31.31,0,0,0,.31-.31v-.31a.31.31,0,0,0-.31-.31H22V30h1.548a.929.929,0,0,1,.929.929v.31A.929.929,0,0,1,23.548,32.167Z" transform="translate(-15.189 -20.712)" fill="#777"/><path d="M31.12,9.034h-.068L24.241,7.486A.31.31,0,0,1,24,7.176V2.842a.31.31,0,0,1,.241-.31L31.052.984a.313.313,0,0,1,.378.31v7.43A.31.31,0,0,1,31.12,9.034Zm-6.5-2.105,6.192,1.409V1.681L24.619,3.09Z" transform="translate(-16.57 -0.675)" fill="#777"/><path d="M13.263,10.953H9.238A1.238,1.238,0,0,1,8,9.715V7.238A1.238,1.238,0,0,1,9.238,6h4.025a.31.31,0,0,1,.31.31v4.334A.31.31,0,0,1,13.263,10.953ZM9.238,6.619a.619.619,0,0,0-.619.619V9.715a.619.619,0,0,0,.619.619h3.715V6.619Z" transform="translate(-5.523 -4.142)" fill="#777"/><path d="M13.619,22.477H13V20.31a.31.31,0,0,1,.31-.31h2.167a.31.31,0,0,1,.31.31v1.858h-.619V20.619H13.619Z" transform="translate(-8.975 -13.808)" fill="#777"/><rect width="2.477" height="0.619" transform="translate(4.025 4.644)" fill="#777"/><rect width="2.477" height="0.619" transform="translate(4.025 3.406)" fill="#777"/><rect width="0.619" height="8.669" transform="translate(14.241)" fill="#777"/><rect width="0.619" height="6.811" transform="translate(12.384 0.929)" fill="#777"/></svg>