<svg xmlns="http://www.w3.org/2000/svg" width="59.255" height="38.509" viewBox="0 0 59.255 38.509"><g transform="translate(-2.215 -7.748)"><path d="M38.888,37.376c-1.478-.528-3.893-.554-4.962-.963a7.01,7.01,0,0,1-2.3-1.069c-.383-.462-.383-3.761-.383-3.761a6.076,6.076,0,0,0,1.307-1.848,20.534,20.534,0,0,0,.633-3.629s.871.37,1.214-1.373c.29-1.5.845-2.3.7-3.4s-.765-.845-.765-.845.765-1.122.765-4.936c0-3.933-2.969-7.8-8.525-7.8s-8.539,3.88-8.539,7.8c0,3.814.752,4.936.752,4.936s-.62-.264-.765.845.4,1.9.7,3.4c.343,1.755,1.214,1.373,1.214,1.373a20.732,20.732,0,0,0,.633,3.629,6.076,6.076,0,0,0,1.307,1.848s0,3.3-.383,3.761A6.747,6.747,0,0,1,19.2,36.4c-1.056.409-3.471.462-4.962.99a9.314,9.314,0,0,0-6.044,8.869H44.919A9.3,9.3,0,0,0,38.888,37.376Z" transform="translate(5.241)" fill="#ececec"/><path d="M16.534,27.915s3.154-.106,4.408-1.227c-2.046-3.1-.937-6.717-1.359-10.1s-2.336-5.384-6.163-5.384h-.053c-3.7,0-5.688,2.006-6.11,5.384s.752,7.39-1.346,10.1c1.254,1.135,4.421,1.1,4.421,1.1h0A6.684,6.684,0,0,1,10.2,30a3.332,3.332,0,0,1-1.584.726,30.622,30.622,0,0,0-3.418.95,5.556,5.556,0,0,0-2.983,4.909h10.6c.29-1.056,2.283-2.943,4.223-3.933a8.862,8.862,0,0,1,3.26-.686s.5-.792-1.148-1.1a11.25,11.25,0,0,1-2.534-.884C16.362,29.7,16.534,27.915,16.534,27.915Z" transform="translate(0 3.034)" fill="#ececec"/><path d="M28.216,27.915s-3.154-.106-4.408-1.227c2.046-3.1.937-6.717,1.359-10.1s2.336-5.384,6.163-5.384h.053c3.7,0,5.688,2.006,6.11,5.384s-.752,7.39,1.346,10.1c-1.254,1.135-4.421,1.1-4.421,1.1h0A6.684,6.684,0,0,0,34.55,30a3.332,3.332,0,0,0,1.584.726,30.622,30.622,0,0,1,3.418.95,5.556,5.556,0,0,1,2.983,4.909h-10.6c-.29-1.056-2.283-2.943-4.223-3.933a8.862,8.862,0,0,0-3.26-.686s-.5-.792,1.148-1.1a11.25,11.25,0,0,0,2.534-.884C28.387,29.7,28.216,27.915,28.216,27.915Z" transform="translate(18.936 3.034)" fill="#ececec"/></g></svg>