<svg xmlns="http://www.w3.org/2000/svg" width="13.499" height="13.5" viewBox="0 0 13.499 13.5"><path d="M17.993,17.659C17.74,16.541,16.3,16,15.8,15.82a16.382,16.382,0,0,0-1.832-.352,1.861,1.861,0,0,1-.847-.39,7.4,7.4,0,0,1-.056-1.733,5.215,5.215,0,0,0,.4-.763,9.84,9.84,0,0,0,.3-1.332s.288,0,.39-.506a4.981,4.981,0,0,0,.26-1.178c-.021-.4-.243-.394-.243-.394a6.164,6.164,0,0,0,.239-1.8A2.9,2.9,0,0,0,11.254,4.5,2.884,2.884,0,0,0,8.1,7.369a6.429,6.429,0,0,0,.236,1.8s-.221-.011-.243.394a4.981,4.981,0,0,0,.26,1.178c.1.506.39.506.39.506a9.84,9.84,0,0,0,.3,1.332,5.215,5.215,0,0,0,.4.763,7.4,7.4,0,0,1-.056,1.733,1.861,1.861,0,0,1-.847.39A16.382,16.382,0,0,0,6.7,15.82c-.5.176-1.944.721-2.2,1.839A.281.281,0,0,0,4.785,18H17.719A.28.28,0,0,0,17.993,17.659Z" transform="translate(-4.501 -4.5)" fill="#e5352b"/></svg>