<svg xmlns="http://www.w3.org/2000/svg" width="20.003" height="18.926" viewBox="0 0 20.003 18.926"><g transform="translate(-2.215 -7.748)"><path d="M18.554,17.75c-.5-.178-1.314-.187-1.675-.325a2.366,2.366,0,0,1-.775-.361,4.79,4.79,0,0,1-.129-1.27,2.051,2.051,0,0,0,.441-.624,6.932,6.932,0,0,0,.214-1.225s.294.125.41-.463c.1-.508.285-.775.236-1.149s-.258-.285-.258-.285a3.336,3.336,0,0,0,.258-1.666A2.666,2.666,0,0,0,14.4,7.748a2.675,2.675,0,0,0-2.882,2.633,3.385,3.385,0,0,0,.254,1.666s-.209-.089-.258.285.134.642.236,1.149c.116.593.41.463.41.463a7,7,0,0,0,.214,1.225,2.051,2.051,0,0,0,.441.624,4.79,4.79,0,0,1-.129,1.27,2.278,2.278,0,0,1-.775.356c-.356.138-1.172.156-1.675.334a3.144,3.144,0,0,0-2.04,2.994h12.4A3.138,3.138,0,0,0,18.554,17.75Z" transform="translate(-2.19 0)" fill="#797979"/><path d="M7.048,16.848a3.024,3.024,0,0,0,1.488-.414c-.691-1.047-.316-2.268-.459-3.408A1.88,1.88,0,0,0,6,11.208H5.979a1.885,1.885,0,0,0-2.063,1.818c-.143,1.136.254,2.495-.454,3.408a2.8,2.8,0,0,0,1.492.37h0a2.256,2.256,0,0,1-.045.748,1.125,1.125,0,0,1-.535.245,10.337,10.337,0,0,0-1.154.321,1.876,1.876,0,0,0-1.007,1.657H5.792a3.2,3.2,0,0,1,1.426-1.328,2.992,2.992,0,0,1,1.1-.232s.169-.267-.388-.37a3.8,3.8,0,0,1-.855-.3C6.991,17.449,7.048,16.848,7.048,16.848Z" transform="translate(0 -1.268)" fill="#797979"/><path d="M25.3,16.848a3.024,3.024,0,0,1-1.488-.414c.691-1.047.316-2.268.459-3.408a1.88,1.88,0,0,1,2.08-1.818h.018a1.885,1.885,0,0,1,2.063,1.818c.143,1.136-.254,2.495.454,3.408a2.8,2.8,0,0,1-1.492.37h0a2.256,2.256,0,0,0,.045.748,1.125,1.125,0,0,0,.535.245,10.337,10.337,0,0,1,1.154.321,1.876,1.876,0,0,1,1.007,1.657H26.552a3.2,3.2,0,0,0-1.426-1.328,2.992,2.992,0,0,0-1.1-.232s-.169-.267.388-.37a3.8,3.8,0,0,0,.855-.3C25.354,17.449,25.3,16.848,25.3,16.848Z" transform="translate(-7.912 -1.268)" fill="#797979"/><text transform="translate(11.701 25.675)" fill="#777" font-size="3" font-family="YuGothic-Bold, Yu Gothic" font-weight="700"><tspan x="-4.5" y="0">参加者</tspan></text></g></svg>