<svg xmlns="http://www.w3.org/2000/svg" width="13.552" height="13.551" viewBox="0 0 13.552 13.551"><g transform="translate(-0.004 0)"><g transform="translate(0.004 0)"><rect width="2.258" height="0.565" transform="translate(7.621 6.493)" fill="#777"/><rect width="0.565" height="3.388" transform="translate(6.492 2.541)" fill="#777"/><rect width="0.565" height="0.565" transform="translate(1.128 6.493)" fill="#777"/><rect width="0.565" height="0.565" transform="translate(11.856 6.493)" fill="#777"/><rect width="0.565" height="0.565" transform="translate(11.009 3.952)" fill="#777"/><rect width="0.565" height="0.565" transform="translate(9.315 1.976)" fill="#777"/><rect width="0.565" height="0.565" transform="translate(6.492 1.129)" fill="#777"/><rect width="0.565" height="0.565" transform="translate(9.033 11.01)" fill="#777"/><rect width="0.565" height="0.565" transform="translate(11.009 9.316)" fill="#777"/><rect width="0.565" height="0.565" transform="translate(6.492 11.857)" fill="#777"/><rect width="0.565" height="0.565" transform="translate(3.669 11.01)" fill="#777"/><rect width="0.565" height="0.565" transform="translate(3.951 1.976)" fill="#777"/><rect width="0.565" height="0.565" transform="translate(1.975 3.67)" fill="#777"/><path d="M6.778,13.551A6.776,6.776,0,0,1,.827,10.015l.495-.281a6.239,6.239,0,1,0-.367-.81l-.531.2a6.775,6.775,0,1,1,6.355,4.429Z" transform="translate(-0.004 0)" fill="#777"/><path d="M2.565,36.258H2V34.282A.282.282,0,0,1,2.282,34H4.258v.565H2.565Z" transform="translate(-1.436 -24.402)" fill="#777"/><path d="M21.129,22.258a1.129,1.129,0,1,1,1.129-1.129A1.129,1.129,0,0,1,21.129,22.258Zm0-1.694a.565.565,0,1,0,.565.565A.565.565,0,0,0,21.129,20.565Z" transform="translate(-14.355 -14.354)" fill="#777"/></g></g></svg>