<svg xmlns="http://www.w3.org/2000/svg" width="16" height="18.101" viewBox="0 0 16 18.101"><g transform="translate(-182.686 -174.899)"><g transform="translate(183.11 174.899)"><path d="M2.841,28.051H.316A.316.316,0,0,1,0,27.735v-4.42A.316.316,0,0,1,.316,23H2.841a.316.316,0,0,1,.316.316v4.42A.316.316,0,0,1,2.841,28.051ZM.631,27.42H2.525V23.631H.631Z" transform="translate(0 -15.739)" fill="#777"/><path d="M14.532,31.036h-.069L8.78,29.773l.139-.631L14.491,30.4l6.039-3.037v-.676l-4.038.871-.133-.631,4.42-.947a.316.316,0,0,1,.382.316v1.263a.316.316,0,0,1-.174.281L14.674,31A.316.316,0,0,1,14.532,31.036Z" transform="translate(-6.008 -17.777)" fill="#777"/><path d="M13.667,26.786a.265.265,0,0,1-.085,0l-2.21-.631.17-.631,2.125.631,2.525-.559v-.7h-2.21a.316.316,0,0,1-.174-.054l-1.8-1.209-3.043.316L8.9,23.313,12.057,23a.316.316,0,0,1,.205.054l1.815,1.209h2.431a.316.316,0,0,1,.316.316v1.263a.316.316,0,0,1-.246.316l-2.841.631Z" transform="translate(-6.09 -15.737)" fill="#777"/><rect width="0.979" height="0.979" transform="translate(0.979 10.323)" fill="#777"/><path d="M20.627,7.576H20V.631H8.631v6H8V.316A.316.316,0,0,1,8.316,0h12a.316.316,0,0,1,.316.316Z" transform="translate(-5.475)" fill="#777"/><path d="M35.263,11.525a1.263,1.263,0,1,1,1.263-1.263A1.263,1.263,0,0,1,35.263,11.525Zm0-1.894a.631.631,0,1,0,.631.631A.631.631,0,0,0,35.263,9.631Z" transform="translate(-23.267 -6.159)" fill="#777"/><path d="M15.263,11.525a1.263,1.263,0,1,1,1.263-1.263A1.263,1.263,0,0,1,15.263,11.525Zm0-1.894a.631.631,0,1,0,.631.631A.631.631,0,0,0,15.263,9.631Z" transform="translate(-9.58 -6.159)" fill="#777"/><path d="M25.263,10.42A1.263,1.263,0,0,1,24,9.157h.631a.631.631,0,1,0,.631-.631,1.263,1.263,0,1,1,1.263-1.263h-.631a.631.631,0,1,0-.631.631,1.263,1.263,0,0,1,0,2.525Z" transform="translate(-16.424 -4.106)" fill="#777"/><rect height="0.979" transform="translate(8.807 6.409)" fill="#777"/><rect height="0.979" transform="translate(8.807 1.517)" fill="#777"/><rect width="0.979" transform="translate(3.914 1.517)" fill="#777"/><rect transform="translate(13.699 1.517)" fill="#777"/><rect height="0.979" transform="translate(13.699 6.409)" fill="#777"/></g><text transform="translate(190.686 192)" fill="#777" font-size="3" font-family="YuGothic-Bold, Yu Gothic" font-weight="700"><tspan x="-7.5" y="0">総額報酬金</tspan></text></g></svg>