<svg xmlns="http://www.w3.org/2000/svg" width="16.128" height="13.153" viewBox="0 0 16.128 13.153"><g transform="translate(-44.66 -65)"><rect width="5.042" height="6" transform="translate(45.16 71.653)" fill="#fff" stroke="#fff" stroke-linejoin="round" stroke-miterlimit="10" stroke-width="1"/><rect width="5.042" height="4.047" transform="translate(55.245 73.606)" fill="#fff" stroke="#fff" stroke-linejoin="round" stroke-miterlimit="10" stroke-width="1"/><rect width="5.042" height="9" transform="translate(50.202 68.653)" fill="#fff" stroke="#fff" stroke-linejoin="round" stroke-miterlimit="10" stroke-width="1"/><path d="M135.119,75.1H132.61V73.45l.61.716.645-.716.645.716.61-.716Z" transform="translate(-81.141 -7.84)" fill="#fff"/><circle cx="0.162" cy="0.162" r="0.162" transform="translate(51.29 65)" fill="#fff"/><circle cx="0.162" cy="0.162" r="0.162" transform="translate(52.562 65)" fill="#fff"/><circle cx="0.162" cy="0.162" r="0.162" transform="translate(53.835 65)" fill="#fff"/><g transform="translate(52.066 69.811)"><path d="M140.88,133.47h.47v-1.327h-.4v-.269a1.416,1.416,0,0,0,.509-.183h.322v1.779h.411v.352H140.88Z" transform="translate(-140.88 -131.69)" fill="#e5352b"/></g><g transform="translate(46.938 72.729)"><path d="M69.821,174.051c.571-.544.946-.916.946-1.232a.308.308,0,0,0-.328-.346.577.577,0,0,0-.4.228l-.237-.237a.882.882,0,0,1,.695-.334.638.638,0,0,1,.689.665c0,.372-.343.757-.733,1.164.11-.012.254-.024.358-.024h.479v.366H69.821Z" transform="translate(-69.8 -172.13)" fill="#e5352b"/></g><g transform="translate(57.016 74.522)"><path d="M209.49,198.89l.2-.275a.694.694,0,0,0,.488.224c.221,0,.372-.106.372-.289,0-.207-.127-.334-.6-.334V197.9c.4,0,.532-.133.532-.316,0-.165-.106-.263-.293-.263a.6.6,0,0,0-.414.195l-.221-.266a.975.975,0,0,1,.657-.272c.423,0,.709.207.709.574a.506.506,0,0,1-.364.482v.015a.536.536,0,0,1,.434.526c0,.39-.352.618-.768.618A.928.928,0,0,1,209.49,198.89Z" transform="translate(-209.49 -196.98)" fill="#e5352b"/></g></g></svg>