<svg xmlns="http://www.w3.org/2000/svg" width="15.486" height="13.55" viewBox="0 0 15.486 13.55"><path d="M2.9,28.162H.323A.323.323,0,0,1,0,27.839V23.323A.323.323,0,0,1,.323,23H2.9a.323.323,0,0,1,.323.323v4.517A.323.323,0,0,1,2.9,28.162ZM.645,27.517H2.581V23.645H.645Z" transform="translate(0 -15.58)" fill="#777"/><path d="M14.658,31.147h-.071L8.78,29.856l.142-.645,5.694,1.29,6.172-3.1v-.69l-4.126.89-.135-.645,4.517-.968a.323.323,0,0,1,.39.323V27.6a.323.323,0,0,1-.177.287L14.8,31.111A.323.323,0,0,1,14.658,31.147Z" transform="translate(-5.947 -17.597)" fill="#777"/><path d="M13.771,26.869a.271.271,0,0,1-.087,0l-2.258-.645.174-.645,2.171.645,2.581-.571v-.719H14.094a.323.323,0,0,1-.177-.055l-1.842-1.236-3.11.323L8.9,23.32,12.126,23a.323.323,0,0,1,.21.055l1.855,1.236h2.484a.323.323,0,0,1,.323.323V25.9a.323.323,0,0,1-.252.323l-2.9.645Z" transform="translate(-6.029 -15.577)" fill="#777"/><rect width="1" height="1" transform="translate(1 10.55)" fill="#777"/><path d="M20.9,7.743h-.645V.645H8.645v6.13H8V.323A.323.323,0,0,1,8.323,0H20.582A.323.323,0,0,1,20.9.323Z" transform="translate(-5.419)" fill="#777"/><path d="M35.29,11.581a1.29,1.29,0,1,1,1.29-1.29A1.29,1.29,0,0,1,35.29,11.581Zm0-1.936a.645.645,0,1,0,.645.645A.645.645,0,0,0,35.29,9.645Z" transform="translate(-23.031 -6.096)" fill="#777"/><path d="M15.29,11.581a1.29,1.29,0,1,1,1.29-1.29A1.29,1.29,0,0,1,15.29,11.581Zm0-1.936a.645.645,0,1,0,.645.645A.645.645,0,0,0,15.29,9.645Z" transform="translate(-9.483 -6.096)" fill="#777"/><path d="M25.29,10.517A1.29,1.29,0,0,1,24,9.226h.645a.645.645,0,1,0,.645-.645,1.29,1.29,0,1,1,1.29-1.29h-.645a.645.645,0,1,0-.645.645,1.29,1.29,0,0,1,0,2.581Z" transform="translate(-16.257 -4.064)" fill="#777"/><rect height="1" transform="translate(9 6.55)" fill="#777"/><rect height="1" transform="translate(9 1.55)" fill="#777"/><rect width="1" transform="translate(4 1.55)" fill="#777"/><rect width="1" height="1" transform="translate(4 6.55)" fill="#777"/><rect transform="translate(14 1.55)" fill="#777"/><rect height="1" transform="translate(14 6.55)" fill="#777"/></svg>