<svg xmlns="http://www.w3.org/2000/svg" width="161" height="140" viewBox="0 0 161 140"><g transform="translate(-300 -190)"><g transform="translate(300 190)" fill="none" stroke-linecap="round"><path d="M75.3,9.046a6,6,0,0,1,10.4,0L155.83,131.009a6,6,0,0,1-5.2,8.991H10.371a6,6,0,0,1-5.2-8.991Z" stroke="none"/><path d="M 80.49999237060547 14.04293823242188 L 12.09967041015625 133 L 148.9003143310547 133 L 80.49999237060547 14.04293823242188 M 80.49999237060547 6.03680419921875 C 82.52395629882812 6.03680419921875 84.54791259765625 7.03985595703125 85.70143127441406 9.045974731445312 L 155.8302764892578 131.0091705322266 C 158.1302642822266 135.0091705322266 155.2429351806641 140 150.6288299560547 140 L 10.37113952636719 140 C 5.757064819335938 140 2.8697509765625 135.0091705322266 5.169723510742188 131.0091705322266 L 75.29856109619141 9.045974731445312 C 76.45207214355469 7.03985595703125 78.47603607177734 6.03680419921875 80.49999237060547 6.03680419921875 Z" stroke="none" fill="#e5352b"/></g><text transform="translate(366 306)" fill="#e5352b" font-size="81" font-family="YuGothic-Bold, Yu Gothic" font-weight="700"><tspan x="0" y="0">!</tspan></text></g></svg>