<svg xmlns="http://www.w3.org/2000/svg" width="24.27" height="28.145" viewBox="0 0 24.27 28.145"><g transform="translate(0.5 0.5)"><path d="M23.03,49.75v1.04a2.023,2.023,0,0,0,2.021,2.021h5.873a2.023,2.023,0,0,0,2.021-2.021V49.75Z" transform="translate(-16.321 -28.32)" fill="none" stroke="#fff" stroke-linecap="round" stroke-linejoin="round" stroke-miterlimit="10" stroke-width="1"/><path d="M32.946,46.561v.345H23.03v-.345a2.02,2.02,0,0,1,2.021-2.021h5.873A2.023,2.023,0,0,1,32.946,46.561Z" transform="translate(-16.321 -25.476)" fill="none" stroke="#fff" stroke-linecap="round" stroke-linejoin="round" stroke-miterlimit="10" stroke-width="1"/><path d="M32.946,49.75v1.04a2.023,2.023,0,0,1-2.021,2.021H25.051A2.023,2.023,0,0,1,23.03,50.79V49.75Z" transform="translate(-16.321 -28.32)" fill="none" stroke="#fff" stroke-miterlimit="10" stroke-width="1"/><path d="M30.652,15.525a3.924,3.924,0,0,1-3.906,3.543h-9.38a3.928,3.928,0,0,1-3.92-3.738,7.333,7.333,0,0,0-1.285,4.156V29.32a7.337,7.337,0,0,0,.586,2.884,7.538,7.538,0,0,0,1.467,2.217,7.347,7.347,0,0,0,5.305,2.258h4.937a7.325,7.325,0,0,0,5.31-2.267A7.32,7.32,0,0,0,31.81,29.32V19.491A7.26,7.26,0,0,0,30.652,15.525ZM27.013,32a2.023,2.023,0,0,1-2.021,2.021H19.119A2.023,2.023,0,0,1,17.1,32V30.619A2.02,2.02,0,0,1,19.119,28.6h5.873a2.02,2.02,0,0,1,2.021,2.021Z" transform="translate(-10.389 -9.534)" fill="none" stroke="#fff" stroke-miterlimit="10" stroke-width="1"/><path d="M10.617,44.4a1.755,1.755,0,0,1-.513.077A1.845,1.845,0,0,1,8.26,42.629V39.5a1.849,1.849,0,0,1,1.771-1.844v3.852A7.419,7.419,0,0,0,10.617,44.4Z" transform="translate(-8.26 -21.721)" fill="none" stroke="#fff" stroke-linecap="round" stroke-linejoin="round" stroke-miterlimit="10" stroke-width="1"/><path d="M56.581,39.5v3.125a1.845,1.845,0,0,1-1.844,1.844,1.727,1.727,0,0,1-.577-.1,7.259,7.259,0,0,0,.577-2.866V37.66A1.845,1.845,0,0,1,56.581,39.5Z" transform="translate(-33.311 -21.721)" fill="none" stroke="#fff" stroke-linecap="round" stroke-linejoin="round" stroke-miterlimit="10" stroke-width="1"/><path d="M32.2,11.683a3.924,3.924,0,0,1-3.906,3.543H18.91a3.928,3.928,0,0,1-3.92-3.738v0a5.371,5.371,0,0,1,.4-.513,7.338,7.338,0,0,1,5.578-2.68H26c.059,0,.114,0,.173,0a7.315,7.315,0,0,1,5.56,2.744C31.9,11.242,32.051,11.46,32.2,11.683Z" transform="translate(-11.933 -5.692)" fill="none" stroke="#fff" stroke-linecap="round" stroke-linejoin="round" stroke-miterlimit="10" stroke-width="1"/><path d="M21.35,4.205v.958a7.338,7.338,0,0,0-5.578,2.68,1.4,1.4,0,0,1-.082-.5V4.205A1.634,1.634,0,0,1,17.325,2.57h2.4A1.637,1.637,0,0,1,21.35,4.205Z" transform="translate(-12.315 -2.57)" fill="none" stroke="#fff" stroke-miterlimit="10" stroke-width="1"/><path d="M45.27,4.205V7.348a1.717,1.717,0,0,1-.1.568,7.286,7.286,0,0,0-5.56-2.744V4.205A1.632,1.632,0,0,1,41.236,2.57h2.407A1.635,1.635,0,0,1,45.27,4.205Z" transform="translate(-25.37 -2.57)" fill="none" stroke="#fff" stroke-miterlimit="10" stroke-width="1"/><path d="M32.841,23.208H31.428A1.006,1.006,0,0,1,30.42,22.2V18.188a1.006,1.006,0,0,1,1.008-1.008h1.413a1.006,1.006,0,0,1,1.008,1.008v4.006A1.01,1.01,0,0,1,32.841,23.208Z" transform="translate(-20.354 -10.544)" fill="none" stroke="#fff" stroke-linecap="round" stroke-linejoin="round" stroke-miterlimit="10" stroke-width="1"/></g></svg>