<svg xmlns="http://www.w3.org/2000/svg" width="27.804" height="28.15" viewBox="0 0 27.804 28.15"><g transform="translate(1.33 0.506)"><path d="M32.445,20.549c-.046.2-.092.4-.148.6a7.75,7.75,0,0,1-.623,1.536,7.832,7.832,0,0,1-1.684,2.148,7.286,7.286,0,0,1-1.026.786,7.832,7.832,0,0,1-4.251,1.24,7.981,7.981,0,0,1-2.409-.373,7.782,7.782,0,0,1-2.868-1.653h-.005a7.8,7.8,0,0,1-2.3-3.679,7.6,7.6,0,0,1-.306-2.169,8.089,8.089,0,0,1,.352-2.347c1.046.822,2.1,2.051,1.863,3.531-.316,1.954,2.506-3.786,3.536-8.777.444-2.123.556-4.113-.036-5.317-1.75-3.582,6.022,2.1,7.624,7.226a5.623,5.623,0,0,1,.276,1.929c-.158,3.113.949,2.745,1.924,1.847a10.68,10.68,0,0,0,1.4-1.638A3.956,3.956,0,0,1,32.445,20.549Z" transform="translate(-12.584 -4.947)" fill="none" stroke="#fff" stroke-linecap="round" stroke-linejoin="round" stroke-miterlimit="10" stroke-width="1"/><path d="M16.734,40.369H13.07a1.753,1.753,0,0,1-1.75-1.75V38.44a1.753,1.753,0,0,1,1.75-1.75h1.368A7.81,7.81,0,0,0,16.734,40.369Z" transform="translate(-9.886 -20.492)" fill="none" stroke="#fff" stroke-miterlimit="10" stroke-width="1"/><path d="M13.746,50.5a2.616,2.616,0,0,1-2.618,2.618A2.617,2.617,0,0,1,9.51,48.446l.015-.005a2.6,2.6,0,0,1,1.158-.515h.005a3.045,3.045,0,0,1,.434-.036A2.617,2.617,0,0,1,13.746,50.5Z" transform="translate(-8.51 -25.976)" fill="none" stroke="#fff" stroke-miterlimit="10" stroke-width="1"/><path d="M54.386,50.5a2.617,2.617,0,0,1-5.19.48,2.505,2.505,0,0,1-.046-.48,2.62,2.62,0,0,1,2.618-2.618,2.53,2.53,0,0,1,1.24.316l.015.005.005.005a2.369,2.369,0,0,1,.709.582l.02.015A2.568,2.568,0,0,1,54.386,50.5Z" transform="translate(-28.411 -25.971)" fill="none" stroke="#fff" stroke-miterlimit="10" stroke-width="1"/><path d="M15.219,50.233a2.591,2.591,0,0,0,.612-1.684,2.62,2.62,0,0,0-2.618-2.618,3.045,3.045,0,0,0-.434.036L17.449,43.9h.005a7.741,7.741,0,0,0,2.868,1.653Z" transform="translate(-10.601 -24.022)" fill="none" stroke="#fff" stroke-miterlimit="10" stroke-width="1"/><path d="M10.47,48.476l.015-.01,1.158-.515h.005" transform="translate(-9.47 -26.006)" fill="none" stroke="#fff" stroke-miterlimit="10" stroke-width="1"/><path d="M49.9,38.435v.179a1.753,1.753,0,0,1-1.75,1.75H42.62A7.853,7.853,0,0,0,44.3,38.216a7.937,7.937,0,0,0,.623-1.536h3.225A1.756,1.756,0,0,1,49.9,38.435Z" transform="translate(-25.214 -20.487)" fill="none" stroke="#fff" stroke-miterlimit="10" stroke-width="1"/><path d="M48.831,46.242a2.545,2.545,0,0,0-1.24-.316,2.62,2.62,0,0,0-2.618,2.618,2.506,2.506,0,0,0,.046.48l-4.4-4.338a7.285,7.285,0,0,0,1.026-.786h4.317Z" transform="translate(-24.234 -24.022)" fill="none" stroke="#fff" stroke-miterlimit="10" stroke-width="1"/><path d="M57.465,49.107l-.02-.015-.714-.587-.005-.005-.015-.01" transform="translate(-32.114 -26.27)" fill="none" stroke="#fff" stroke-miterlimit="10" stroke-width="1"/></g></svg>