<svg xmlns="http://www.w3.org/2000/svg" width="27.145" height="27.145" viewBox="0 0 27.145 27.145"><path d="M5.655,27.145a.605.605,0,0,1-.294-.079.566.566,0,0,1-.271-.486V22.055H.566A.566.566,0,0,1,0,21.489V.566A.566.566,0,0,1,.566,0H26.579a.566.566,0,0,1,.566.566V21.489a.566.566,0,0,1-.566.566H15.41L5.921,27.077a.566.566,0,0,1-.266.068ZM1.131,20.924H5.655a.566.566,0,0,1,.566.566V25.64L15,20.992a.566.566,0,0,1,.266-.068H26.014V1.131H1.131Z" fill="#fff"/><path d="M24.09,26.614H19.566A.566.566,0,0,1,19,26.048V17.566A.566.566,0,0,1,19.566,17H24.09a.566.566,0,0,1,.566.566v8.483A.566.566,0,0,1,24.09,26.614Zm-3.959-1.131h3.393V18.131H20.131Z" transform="translate(-8.255 -7.386)" fill="#fff"/><path d="M21.828,10.655a2.828,2.828,0,1,1,2.828-2.828A2.828,2.828,0,0,1,21.828,10.655Zm0-4.524a1.7,1.7,0,1,0,1.7,1.7A1.7,1.7,0,0,0,21.828,6.131Z" transform="translate(-8.255 -2.172)" fill="#fff"/><rect width="7.352" height="1.131" transform="translate(9.896 9.614)" fill="#fff"/><rect width="7.352" height="1.131" transform="translate(9.896 18.096)" fill="#fff"/></svg>