<svg xmlns="http://www.w3.org/2000/svg" width="23.707" height="28.167" viewBox="0 0 23.707 28.167"><g transform="translate(0.502 0.522)"><path d="M21,16.54a9.311,9.311,0,1,0,9.311,9.307A9.311,9.311,0,0,0,21,16.54Zm1.678,9.38a.459.459,0,0,0,0,.078v.151a1.8,1.8,0,0,1-.092.316.4.4,0,0,1-.05.11l-.028.064a.38.38,0,0,1-.032.06h0c0,.041-.05.083-.078.124a1.076,1.076,0,0,1-.087.115h0a1.6,1.6,0,0,1-.266.234.917.917,0,0,1-.138.1,1.274,1.274,0,0,1-.193.1l-.133.05a.83.83,0,0,1-.142.041l-.115.023h-.582l-.105-.023a.724.724,0,0,1-.142-.041l-.156-.06h0l-.183-.064a1.618,1.618,0,0,1-.3-.225,1.087,1.087,0,0,1-.124-.128l-.037-.046-.069-.1-.073-.119a.674.674,0,0,1-.064-.128,1.2,1.2,0,0,1-.092-.243.05.05,0,0,1,0-.023,2.752,2.752,0,0,1-.05-.28h0v-.147a1.866,1.866,0,0,1,0-.229A1.66,1.66,0,0,1,19.553,25c.032-.055.069-.11.105-.16a1.233,1.233,0,0,1,.124-.147,1.032,1.032,0,0,1,.183-.165l.119-.078a1.55,1.55,0,0,1,.188-.11,1,1,0,0,1,.16-.069l.138-.046h.087a.917.917,0,0,1,.156-.028,1.485,1.485,0,0,1,.4,0,.885.885,0,0,1,.165.028l.124.032a.706.706,0,0,1,.138.05l.119.05h.028a.88.88,0,0,1,.142.083,1.637,1.637,0,0,1,.307.252.591.591,0,0,1,.087.1l.032.041h0a1.664,1.664,0,0,1,.335,1.009A.458.458,0,0,1,22.679,25.92Z" transform="translate(-9.65 -10.019)" fill="none" stroke="#ccc" stroke-linecap="round" stroke-linejoin="round" stroke-width="1"/><path d="M19.774,12.078A11.228,11.228,0,0,0,18.591,12a10.118,10.118,0,0,0-1.183.064,11.351,11.351,0,1,0,2.366,0ZM18.591,32.7A9.311,9.311,0,1,1,27.9,23.388,9.311,9.311,0,0,1,18.591,32.7Z" transform="translate(-7.239 -7.561)" fill="none" stroke="#ccc" stroke-linecap="round" stroke-linejoin="round" stroke-width="1"/><path d="M21,16.54a9.311,9.311,0,1,0,9.311,9.307A9.311,9.311,0,0,0,21,16.54Zm1.678,9.38a.459.459,0,0,0,0,.078v.151a1.8,1.8,0,0,1-.092.316.4.4,0,0,1-.05.11l-.028.064a.38.38,0,0,1-.032.06h0c0,.041-.05.083-.078.124a1.076,1.076,0,0,1-.087.115h0a1.6,1.6,0,0,1-.266.234.917.917,0,0,1-.138.1,1.274,1.274,0,0,1-.193.1l-.133.05a.83.83,0,0,1-.142.041l-.115.023h-.582l-.105-.023a.724.724,0,0,1-.142-.041l-.156-.06h0l-.183-.064a1.618,1.618,0,0,1-.3-.225,1.087,1.087,0,0,1-.124-.128l-.037-.046-.069-.1-.073-.119a.674.674,0,0,1-.064-.128,1.2,1.2,0,0,1-.092-.243.05.05,0,0,1,0-.023,2.752,2.752,0,0,1-.05-.28h0v-.147a1.866,1.866,0,0,1,0-.229A1.66,1.66,0,0,1,19.553,25c.032-.055.069-.11.105-.16a1.233,1.233,0,0,1,.124-.147,1.032,1.032,0,0,1,.183-.165l.119-.078a1.55,1.55,0,0,1,.188-.11,1,1,0,0,1,.16-.069l.138-.046h.087a.917.917,0,0,1,.156-.028,1.485,1.485,0,0,1,.4,0,.885.885,0,0,1,.165.028l.124.032a.706.706,0,0,1,.138.05l.119.05h.028a.88.88,0,0,1,.142.083,1.637,1.637,0,0,1,.307.252.591.591,0,0,1,.087.1l.032.041h0a1.664,1.664,0,0,1,.335,1.009A.458.458,0,0,1,22.679,25.92Z" transform="translate(-9.65 -10.019)" fill="none" stroke="#ccc" stroke-linecap="round" stroke-linejoin="round" stroke-width="1"/><path d="M31.747,29.134,31.71,29.1a.569.569,0,0,0-.083-.1,1.637,1.637,0,0,0-.307-.252.881.881,0,0,0-.142-.083h-.028l-.119-.05a.706.706,0,0,0-.138-.05l-.124-.032a.885.885,0,0,0-.165-.028,1.485,1.485,0,0,0-.4,0,.917.917,0,0,0-.156.028h-.087l-.138.046a1,1,0,0,0-.16.069,1.55,1.55,0,0,0-.188.11.514.514,0,0,0-.1.073,1.032,1.032,0,0,0-.183.165c-.046.046-.087.1-.128.147l1.348-4.649,1.33,4.585Z" transform="translate(-19.056 -14.325)" fill="none" stroke="#ccc" stroke-linecap="round" stroke-linejoin="round" stroke-width="1"/><path d="M31.764,39.255l-1.27,6.712L29.22,39.25l.128.128a1.618,1.618,0,0,0,.3.225l.124.064h0l.156.06a.724.724,0,0,0,.142.041l.105.023h.582l.115-.023a.83.83,0,0,0,.142-.041l.133-.05a1.274,1.274,0,0,0,.193-.1.917.917,0,0,0,.138-.1,1.6,1.6,0,0,0,.284-.225Z" transform="translate(-19.143 -22.318)" fill="none" stroke="#ccc" stroke-linecap="round" stroke-linejoin="round" stroke-width="1"/><path d="M41.033,36.84H35.66" transform="translate(-22.63 -21.013)" fill="none" stroke="#ccc" stroke-linecap="round" stroke-linejoin="round" stroke-width="1"/><path d="M21.988,36.84H16.61" transform="translate(-12.314 -21.013)" fill="none" stroke="#ccc" stroke-linecap="round" stroke-linejoin="round" stroke-width="1"/><path d="M37.329,30.15l-2.467,1.994-.018.014,0,0" transform="translate(-22.186 -17.39)" fill="none" stroke="#ccc" stroke-linecap="round" stroke-linejoin="round" stroke-width="1"/><path d="M26.209,39.15h0L23.72,41.163" transform="translate(-16.164 -22.264)" fill="none" stroke="#ccc" stroke-linecap="round" stroke-linejoin="round" stroke-width="1"/><path d="M37.915,40.323,35.155,38.7l0,0" transform="translate(-22.354 -22.02)" fill="none" stroke="#ccc" stroke-linecap="round" stroke-linejoin="round" stroke-width="1"/><path d="M25.575,33.073h0L22.81,31.45" transform="translate(-15.672 -18.094)" fill="none" stroke="#ccc" stroke-linecap="round" stroke-linejoin="round" stroke-width="1"/><path d="M31.719,34.88v.073a.459.459,0,0,0,0,.078v.151a1.8,1.8,0,0,1-.092.316,1.173,1.173,0,0,1-.05.11l-.028.064-.037.055c0,.041-.05.083-.078.124l-.092.115h0a1.6,1.6,0,0,1-.266.234.918.918,0,0,1-.138.1,1.274,1.274,0,0,1-.193.1l-.133.05a.83.83,0,0,1-.142.041l-.115.023h-.582l-.105-.023a.725.725,0,0,1-.142-.041l-.156-.06h0l-.174-.06a1.618,1.618,0,0,1-.3-.225,1.087,1.087,0,0,1-.124-.128l-.037-.046-.069-.1-.073-.119a.674.674,0,0,1-.064-.128c-.032-.078-.064-.16-.092-.243a.05.05,0,0,1,0-.023,2.75,2.75,0,0,1-.05-.28h0v-.147a1.866,1.866,0,0,1,0-.229,1.66,1.66,0,0,1,.206-.624c.032-.055.069-.11.105-.16a1.234,1.234,0,0,1,.124-.147A1.032,1.032,0,0,1,29,33.564l.119-.078a1.55,1.55,0,0,1,.188-.11,1,1,0,0,1,.16-.069l.138-.046H29.7a.917.917,0,0,1,.156-.028,1.485,1.485,0,0,1,.4,0,.885.885,0,0,1,.165.028l.124.032a.706.706,0,0,1,.138.05l.119.05h.028a.88.88,0,0,1,.142.083,1.637,1.637,0,0,1,.307.252.569.569,0,0,1,.083.1l.037.037h0A1.664,1.664,0,0,1,31.719,34.88Z" transform="translate(-18.689 -19.052)" fill="none" stroke="#ccc" stroke-linecap="round" stroke-linejoin="round" stroke-width="1"/><path d="M28.364,36.34a1.867,1.867,0,0,0,0,.229v.073a.394.394,0,0,1,0-.073A1.256,1.256,0,0,1,28.364,36.34Z" transform="translate(-18.676 -20.742)" fill="none" stroke="#ccc" stroke-linecap="round" stroke-linejoin="round" stroke-width="1"/><path d="M28.815,34.32a1.233,1.233,0,0,0-.124.147c-.037.05-.073.105-.105.16a1.66,1.66,0,0,0-.215.619,1.577,1.577,0,0,1,.211-.614c.032-.055.069-.11.105-.16A1.32,1.32,0,0,1,28.815,34.32Z" transform="translate(-18.682 -19.648)" fill="none" stroke="#ccc" stroke-linecap="round" stroke-linejoin="round" stroke-width="1"/><path d="M29.229,39.194l-.128-.128-.037-.046L29,38.91l.083.11.037.046A1.087,1.087,0,0,0,29.229,39.194Z" transform="translate(-19.024 -22.134)" fill="none" stroke="#ccc" stroke-linecap="round" stroke-linejoin="round" stroke-width="1"/><path d="M31.564,4.739a2.4,2.4,0,0,1-1.224,2.1,11.228,11.228,0,0,0-1.183-.078,10.118,10.118,0,0,0-1.183.064,2.407,2.407,0,1,1,3.59-2.081Z" transform="translate(-17.805 -2.317)" fill="none" stroke="#ccc" stroke-linecap="round" stroke-linejoin="round" stroke-width="1"/></g></svg>