<svg xmlns="http://www.w3.org/2000/svg" width="28.264" height="28.145" viewBox="0 0 28.264 28.145"><g transform="translate(0.637 0.5)"><path d="M38.1,37.4a9.415,9.415,0,0,1-1.17,1.166l.906.911,1.17-1.166Z" transform="translate(-21.266 -21.718)" fill="none" stroke="#ccc" stroke-linecap="round" stroke-linejoin="round" stroke-miterlimit="10" stroke-width="1"/><path d="M20.024,6.968A9.537,9.537,0,1,0,19.4,21.017a9.414,9.414,0,0,0,1.17-1.166,9.539,9.539,0,0,0-.547-12.883ZM18.788,19.234a7.787,7.787,0,1,1,2.294-5.521A7.79,7.79,0,0,1,18.788,19.234Z" transform="translate(-3.737 -4.17)" fill="none" stroke="#ccc" stroke-linecap="round" stroke-linejoin="round" stroke-miterlimit="10" stroke-width="1"/><path d="M23.026,15.66a7.81,7.81,0,1,1-2.294-5.517A7.8,7.8,0,0,1,23.026,15.66Z" transform="translate(-5.682 -6.118)" fill="none" stroke="#ccc" stroke-linecap="round" stroke-linejoin="round" stroke-miterlimit="10" stroke-width="1"/><path d="M48.558,47.095l-1.94,1.94a.678.678,0,0,1-.958,0L37.827,41.2a.677.677,0,0,1-.009-.967l.382-.382,1.17-1.166.387-.387a.678.678,0,0,1,.958,0l7.843,7.839A.678.678,0,0,1,48.558,47.095Z" transform="translate(-21.629 -22.088)" fill="none" stroke="#ccc" stroke-linecap="round" stroke-linejoin="round" stroke-miterlimit="10" stroke-width="1"/></g></svg>